<svg width="20" height="20" viewBox="0 0 20 20" fill="none" xmlns="http://www.w3.org/2000/svg">
<path fill-rule="evenodd" clip-rule="evenodd" d="M10.0002 0.416748C7.62627 0.41798 5.33013 1.2588 3.52241 2.78885C1.71469 4.3189 0.513273 6.43842 0.132974 8.76841C-0.247325 11.0984 0.218293 13.4869 1.44658 15.5069C2.67487 17.5269 4.58572 19.0466 6.83746 19.7942C7.33423 19.8864 7.52135 19.5785 7.52135 19.3167C7.52135 19.055 7.51141 18.2959 7.5081 17.4661C4.72618 18.0671 4.13834 16.2922 4.13834 16.2922C3.68462 15.1396 3.02888 14.8367 3.02888 14.8367C2.12145 14.2209 3.09678 14.2324 3.09678 14.2324C4.10192 14.3032 4.63015 15.2582 4.63015 15.2582C5.52103 16.7779 6.96993 16.3383 7.53956 16.0814C7.62898 15.4376 7.88896 14.9997 8.17543 14.751C5.95321 14.5008 3.61839 13.6479 3.61839 9.83793C3.60461 8.84984 3.97337 7.89429 4.64836 7.16898C4.5457 6.91872 4.20292 5.90778 4.74606 4.53461C4.74606 4.53461 5.58561 4.26788 7.49652 5.55378C9.13558 5.1081 10.8649 5.1081 12.504 5.55378C14.4132 4.26788 15.2511 4.53461 15.2511 4.53461C15.7959 5.90448 15.4531 6.91542 15.3505 7.16898C16.0276 7.89441 16.3971 8.85162 16.3821 9.84123C16.3821 13.6594 14.0423 14.5008 11.8168 14.7461C12.1744 15.0556 12.494 15.6599 12.494 16.5885C12.494 17.9189 12.4824 18.9891 12.4824 19.3167C12.4824 19.5818 12.6629 19.8914 13.1696 19.7942C15.4216 19.0465 17.3327 17.5265 18.561 15.5062C19.7892 13.4859 20.2546 11.097 19.8739 8.76679C19.4931 6.43658 18.2911 4.31704 16.4828 2.78725C14.6745 1.25746 12.3778 0.417199 10.0035 0.416748H10.0002Z" fill="black"/>
</svg>
