<svg width="18" height="20" viewBox="0 0 18 20" fill="none" xmlns="http://www.w3.org/2000/svg">
<path d="M7.23997 8.38989C6.66997 8.38989 6.21997 8.88989 6.21997 9.49989C6.21997 10.1099 6.67997 10.6099 7.23997 10.6099C7.80997 10.6099 8.25997 10.1099 8.25997 9.49989C8.26997 8.88989 7.80997 8.38989 7.23997 8.38989ZM10.89 8.38989C10.32 8.38989 9.86997 8.88989 9.86997 9.49989C9.86997 10.1099 10.33 10.6099 10.89 10.6099C11.46 10.6099 11.91 10.1099 11.91 9.49989C11.91 8.88989 11.46 8.38989 10.89 8.38989Z" fill="black"/>
<path d="M15.75 0H2.34999C1.21999 0 0.299988 0.92 0.299988 2.06V15.58C0.299988 16.72 1.21999 17.64 2.34999 17.64H13.69L13.16 15.79L14.44 16.98L15.65 18.1L17.8 20V2.06C17.8 0.92 16.88 0 15.75 0ZM11.89 13.06C11.89 13.06 11.53 12.63 11.23 12.25C12.54 11.88 13.04 11.06 13.04 11.06C12.63 11.33 12.24 11.52 11.89 11.65C11.39 11.86 10.91 12 10.44 12.08C9.47999 12.26 8.59999 12.21 7.84999 12.07C7.27999 11.96 6.78999 11.8 6.37999 11.64C6.14999 11.55 5.89999 11.44 5.64999 11.3C5.61999 11.28 5.58999 11.27 5.55999 11.25C5.53999 11.24 5.52999 11.23 5.51999 11.22C5.33999 11.12 5.23999 11.05 5.23999 11.05C5.23999 11.05 5.71999 11.85 6.98999 12.23C6.68999 12.61 6.31999 13.06 6.31999 13.06C4.10999 12.99 3.26999 11.54 3.26999 11.54C3.26999 8.32 4.70999 5.71 4.70999 5.71C6.14999 4.63 7.51999 4.66 7.51999 4.66L7.61999 4.78C5.81999 5.3 4.98999 6.09 4.98999 6.09C4.98999 6.09 5.20999 5.97 5.57999 5.8C6.64999 5.33 7.49999 5.2 7.84999 5.17C7.90999 5.16 7.95999 5.15 8.01999 5.15C8.62999 5.07 9.31999 5.05 10.04 5.13C10.99 5.24 12.01 5.52 13.05 6.09C13.05 6.09 12.26 5.34 10.56 4.82L10.7 4.66C10.7 4.66 12.07 4.63 13.51 5.71C13.51 5.71 14.95 8.32 14.95 11.54C14.95 11.54 14.1 12.99 11.89 13.06V13.06Z" fill="black"/>
</svg>
