<svg width="54" height="54" viewBox="0 0 54 54" fill="none" xmlns="http://www.w3.org/2000/svg">
<circle cx="27" cy="27" r="27" fill="#FFD6D6" fill-opacity="0.5"/>
<path d="M31.0802 31.4233C29.8824 32.532 28.2581 33.1548 26.5645 33.1548C24.8709 33.1548 23.2466 32.532 22.0488 31.4233M21.7742 24.285H21.7902M31.3548 24.285H31.3708M40.9355 27.242C40.9355 28.9895 40.5638 30.7198 39.8416 32.3342C39.1193 33.9487 38.0608 35.4156 36.7263 36.6512C35.3919 37.8869 33.8076 38.867 32.064 39.5357C30.3205 40.2045 28.4517 40.5486 26.5645 40.5486C24.6773 40.5486 22.8085 40.2045 21.065 39.5357C19.3214 38.867 17.7372 37.8869 16.4027 36.6512C15.0682 35.4156 14.0097 33.9487 13.2875 32.3342C12.5653 30.7198 12.1935 28.9895 12.1935 27.242C12.1935 23.7129 13.7076 20.3283 16.4027 17.8328C19.0978 15.3374 22.7531 13.9354 26.5645 13.9354C30.3759 13.9354 34.0312 15.3374 36.7263 17.8328C39.4214 20.3283 40.9355 23.7129 40.9355 27.242Z" stroke="#C66464" stroke-width="3" stroke-linecap="round" stroke-linejoin="round"/>
</svg>
