<svg width="20" height="20" viewBox="0 0 20 20" fill="none" xmlns="http://www.w3.org/2000/svg">
<g clip-path="url(#clip0_1_776)">
<path d="M19.6017 5.15459C19.4886 4.7291 19.2657 4.34077 18.9554 4.02847C18.6451 3.71617 18.2582 3.49084 17.8335 3.37504C16.2698 2.95459 10.0198 2.95459 10.0198 2.95459C10.0198 2.95459 3.76984 2.95459 2.2062 3.37504C1.78144 3.49084 1.39455 3.71617 1.08424 4.02847C0.773933 4.34077 0.551091 4.7291 0.438018 5.15459C0.0198365 6.72504 0.0198364 10 0.0198364 10C0.0198364 10 0.0198365 13.275 0.438018 14.8455C0.551091 15.271 0.773933 15.6593 1.08424 15.9716C1.39455 16.2839 1.78144 16.5092 2.2062 16.625C3.76984 17.0455 10.0198 17.0455 10.0198 17.0455C10.0198 17.0455 16.2698 17.0455 17.8335 16.625C18.2582 16.5092 18.6451 16.2839 18.9554 15.9716C19.2657 15.6593 19.4886 15.271 19.6017 14.8455C20.0198 13.275 20.0198 10 20.0198 10C20.0198 10 20.0198 6.72504 19.6017 5.15459Z" fill="black"/>
<path d="M7.97437 12.9739V7.02612L13.2016 9.99999L7.97437 12.9739Z" fill="#FEFEFE"/>
</g>
<defs>
<clipPath id="clip0_1_776">
<rect width="20" height="20" fill="white"/>
</clipPath>
</defs>
</svg>
